<?xml version="1.0" encoding="iso-8859-1"?>
<!-- Uploaded to: SVG Repo, www.svgrepo.com, Generator: SVG Repo Mixer Tools -->
<svg version="1.1" id="Layer_1" xmlns="http://www.w3.org/2000/svg" xmlns:xlink="http://www.w3.org/1999/xlink" 
	 viewBox="0 0 512 512" xml:space="preserve">
<path style="fill:#ECD788;" d="M328.916,183.084l69.477,69.477l-25.241,25.241c-14.122,14.122-34.69,19.665-53.996,14.552l0,0
	c-23.946-6.342-49.217,3.783-62.158,24.907L163.52,469.842c-29.82,48.673-97.302,56.664-137.665,16.302l0,0
	c0.001,0.001,0.001,0.001,0.001,0.001C-14.506,445.783-6.515,378.3,42.158,348.48l152.582-93.479
	c21.123-12.941,31.249-38.212,24.907-62.158l0,0c-5.113-19.306,0.43-39.874,14.552-53.996l25.24-25.24L328.916,183.084z"/>
<path style="fill:#E7C64B;" d="M328.916,183.084l69.477,69.477l-25.241,25.241c-14.122,14.122-34.69,19.665-53.996,14.552l0,0
	c-23.946-6.342-49.217,3.783-62.158,24.907L163.52,469.842c-29.82,48.673-97.302,56.664-137.665,16.302l0,0
	c0.001,0.001,0.001,0.001,0.001,0.001C73.244,438.756,328.916,183.084,328.916,183.084z"/>
<path style="fill:#DE9846;" d="M502.98,187.603L324.397,9.02c-12.026-12.026-31.525-12.026-43.55,0l-48.853,48.853
	c-12.026,12.026-12.026,31.525,0,43.55l178.583,178.583c12.026,12.026,31.525,12.026,43.55,0l48.853-48.853
	C515.007,219.127,515.007,199.629,502.98,187.603z"/>
<path style="fill:#C86407;" d="M502.98,187.602L413.689,98.31l-92.404,92.404l89.292,89.292c12.026,12.026,31.525,12.026,43.55,0
	l48.854-48.854C515.007,219.127,515.007,199.629,502.98,187.602z"/>
<g>
	
		<rect x="258.834" y="112.394" transform="matrix(-0.7071 -0.7071 0.7071 -0.7071 565.064 490.0096)" style="fill:#DFDFE0;" width="250.366" height="31.165"/>
	
		<rect x="225.766" y="145.459" transform="matrix(-0.7071 -0.7071 0.7071 -0.7071 485.2341 523.0735)" style="fill:#DFDFE0;" width="250.366" height="31.165"/>
</g>
<g>
	
		<rect x="365.676" y="156.648" transform="matrix(-0.7071 -0.7071 0.7071 -0.7071 609.3125 596.8455)" style="fill:#CECED1;" width="125.183" height="31.165"/>
	
		<rect x="332.627" y="189.716" transform="matrix(-0.7071 -0.7071 0.7071 -0.7071 529.5128 629.9283)" style="fill:#CECED1;" width="125.183" height="31.165"/>
</g>
</svg>