<?xml version="1.0" encoding="iso-8859-1"?>
<!-- Uploaded to: SVG Repo, www.svgrepo.com, Generator: SVG Repo Mixer Tools -->
<svg version="1.1" id="Layer_1" xmlns="http://www.w3.org/2000/svg" xmlns:xlink="http://www.w3.org/1999/xlink" 
	 viewBox="0 0 512.001 512.001" xml:space="preserve">
<path style="fill:#D9DCDF;" d="M129.065,143.223c-3.088-3.087-8.251-3.087-11.339,0c-29.8,29.801-29.8,78.29,0,108.091
	l240.54,240.539V372.426L129.065,143.223z"/>
<rect x="195.379" y="287.242" transform="matrix(-0.7071 -0.7071 0.7071 -0.7071 203.368 743.1697)" style="fill:#B3B9BF;" width="120.441" height="84.448"/>
<path style="fill:#F6F6F7;" d="M129.065,143.223c-3.088-3.087-8.251-3.087-11.339,0c-0.268,0.268-0.517,0.549-0.781,0.822
	l241.322,241.322v-12.941L129.065,143.223z"/>
<rect x="221.997" y="298.281" transform="matrix(-0.7071 -0.7071 0.7071 -0.7071 267.6234 716.5659)" style="fill:#ECEDEF;" width="120.441" height="9.151"/>
<path style="fill:#FF8C78;" d="M353.561,487.149c16.568,16.568,38.329,24.852,60.093,24.852s43.526-8.284,60.093-24.852
	c33.135-33.135,33.135-87.05,0-120.185c-33.136-33.135-87.051-33.134-120.185,0C320.426,400.099,320.426,454.014,353.561,487.149z
	 M439.844,427.057c0,6.995-2.725,13.573-7.671,18.519c-10.212,10.211-26.826,10.213-37.038,0
	c-4.946-4.946-7.671-11.524-7.671-18.519c0-6.995,2.724-13.573,7.671-18.519c5.105-5.105,11.812-7.658,18.519-7.658
	c6.706,0,13.412,2.553,18.519,7.658C437.12,413.484,439.844,420.061,439.844,427.057z"/>
<path style="fill:#DF7A6E;" d="M366.37,487.149c-33.135-33.135-33.135-87.05,0-120.185c14.94-14.94,34.107-23.121,53.687-24.588
	c-23.845-1.786-48.303,6.394-66.497,24.588c-33.135,33.135-33.135,87.05,0,120.185c16.568,16.568,38.329,24.852,60.093,24.852
	c2.137,0,4.273-0.104,6.404-0.263C400.477,510.27,381.311,502.091,366.37,487.149z"/>
<path style="fill:#D9DCDF;" d="M394.276,143.223c-3.088-3.087-8.251-3.087-11.339,0L153.735,372.426v119.428l240.54-240.539
	C424.076,221.514,424.076,173.024,394.276,143.223z"/>
<path style="fill:#F6F6F7;" d="M394.276,143.223c-3.088-3.087-8.251-3.087-11.339,0L153.735,372.426v12.941l241.322-241.322
	C394.793,143.773,394.544,143.492,394.276,143.223z"/>
<path style="fill:#FF8C78;" d="M158.44,366.964c-33.134-33.134-87.049-33.135-120.185,0c-33.135,33.135-33.135,87.05,0,120.185
	c16.568,16.568,38.33,24.852,60.093,24.852s43.525-8.284,60.093-24.852C191.575,454.014,191.575,400.099,158.44,366.964z
	 M79.829,408.538c5.105-5.105,11.812-7.658,18.519-7.658c6.707,0,13.414,2.553,18.519,7.658c4.946,4.946,7.671,11.524,7.671,18.519
	c0,6.995-2.724,13.573-7.671,18.519c-10.212,10.213-26.826,10.211-37.038,0c-4.946-4.946-7.671-11.524-7.671-18.519
	C72.158,420.061,74.882,413.484,79.829,408.538z"/>
<path style="fill:#DF7A6E;" d="M51.101,487.149c-33.135-33.135-33.135-87.05,0-120.185c14.937-14.936,34.096-23.116,53.67-24.587
	c-23.85-1.793-48.317,6.387-66.516,24.587c-33.135,33.135-33.135,87.05,0,120.185c16.568,16.568,38.33,24.852,60.093,24.852
	c2.143,0,4.284-0.104,6.423-0.265C85.197,510.265,66.037,502.085,51.101,487.149z"/>
<path style="fill:#F7B14D;" d="M256.535,307.331c-13.852,0-25.121,11.269-25.121,25.121c0,13.852,11.269,25.121,25.121,25.121
	s25.121-11.269,25.121-25.121C281.656,318.6,270.387,307.331,256.535,307.331z"/>
<path style="fill:#FFC44F;" d="M256.535,315.349c-9.431,0-17.104,7.673-17.104,17.104c0,9.431,7.673,17.104,17.104,17.104
	c9.431,0,17.104-7.673,17.104-17.104C273.639,323.022,265.967,315.349,256.535,315.349z"/>
<g>
	<path style="fill:#68727E;" d="M256.001,255.486c-4.428,0-8.017-3.59-8.017-8.017v-17.104c0-4.428,3.59-8.017,8.017-8.017
		c4.429,0,8.017,3.59,8.017,8.017v17.104C264.018,251.896,260.429,255.486,256.001,255.486z"/>
	<path style="fill:#68727E;" d="M256.001,201.065c-4.428,0-8.017-3.59-8.017-8.017v-18.659c0-4.428,3.59-8.017,8.017-8.017
		c4.429,0,8.017,3.59,8.017,8.017v18.659C264.018,197.476,260.429,201.065,256.001,201.065z"/>
	<path style="fill:#68727E;" d="M256.001,145.09c-4.428,0-8.017-3.59-8.017-8.017v-18.659c0-4.428,3.59-8.017,8.017-8.017
		c4.429,0,8.017,3.59,8.017,8.017v18.659C264.018,141.501,260.429,145.09,256.001,145.09z M256.001,89.114
		c-4.428,0-8.017-3.59-8.017-8.017V62.438c0-4.428,3.59-8.017,8.017-8.017c4.429,0,8.017,3.59,8.017,8.017v18.659
		C264.018,85.525,260.429,89.114,256.001,89.114z"/>
	<path style="fill:#68727E;" d="M256.001,33.138c-4.428,0-8.017-3.59-8.017-8.017V8.017c0-4.428,3.59-8.017,8.017-8.017
		c4.429,0,8.017,3.59,8.017,8.017v17.104C264.018,29.549,260.429,33.138,256.001,33.138z"/>
</g>
</svg>